<svg id="Layer_1" data-name="Layer 1" xmlns="http://www.w3.org/2000/svg" viewBox="0 0 50 50"><title>Untitled-1</title><path d="M17.78,19L19,24v2l6,4.5L31,26V24l1.22-5a1.957,1.957,0,0,0,1.409-.437c1.1-1,1.8-3.5,1.07-4.844C34.187,12.777,34,13,34,13V8.375c0-2.833-1.25-5.125-3.709-5.125C29.458,1.5,27.459,1,25,1c-5.414,0-9,3-9,7v5s-0.187-.223-0.7.719c-0.733,1.344-.028,3.844,1.07,4.844A1.957,1.957,0,0,0,17.78,19Z"/><path d="M44.763,32.254L32,28,27,43.5v-7L25.4,34,27,32.5l-2-2-2,2L24.6,34,23,36.5v7L18,28,5.237,32.254a4.193,4.193,0,0,0-2.674,3.1A71.342,71.342,0,0,0,1,49H49a71.342,71.342,0,0,0-1.563-13.65A4.193,4.193,0,0,0,44.763,32.254Z"/></svg>