<svg id="Layer_1" data-name="Layer 1" xmlns="http://www.w3.org/2000/svg" viewBox="0 0 112.002 112"><defs><style>.cls-1{fill:#ff1a66;}</style></defs><title>Untitled-1</title><ellipse class="cls-1" cx="41.047" cy="42.249" rx="6.083" ry="8.093"/><ellipse class="cls-1" cx="70.763" cy="42.249" rx="6.083" ry="8.093"/><path class="cls-1" d="M56,111a55,55,0,1,1,55-55A55.063,55.063,0,0,1,56,111Zm0-99.862A44.862,44.862,0,1,0,100.863,56,44.913,44.913,0,0,0,56,11.138Z"/><path class="cls-1" d="M78.563,79.826a3.55,3.55,0,0,1-3.353-2.389c-2.146-6.2-9.323-10.052-18.731-10.052S39.894,71.237,37.748,77.437a3.548,3.548,0,1,1-6.707-2.321c3.167-9.146,12.913-14.828,25.438-14.828S78.75,65.97,81.916,75.116A3.551,3.551,0,0,1,78.563,79.826Z"/></svg>
